<?xml version="1.0" standalone="no"?>
<!DOCTYPE svg PUBLIC "-//W3C//DTD SVG 20010904//EN"
 "http://www.w3.org/TR/2001/REC-SVG-20010904/DTD/svg10.dtd">
<svg version="1.0" xmlns="http://www.w3.org/2000/svg"
 width="710.000000pt" height="408.000000pt" viewBox="0 0 710.000000 408.000000"
 preserveAspectRatio="xMidYMid meet">

<g transform="translate(0.000000,408.000000) scale(0.100000,-0.100000)"
fill="#000000" stroke="none">
<path d="M0 2040 l0 -2040 3550 0 3550 0 0 2040 0 2040 -3550 0 -3550 0 0
-2040z m3170 1820 c0 -15 229 -1571 236 -1599 l5 -24 -77 6 c-43 4 -79 8 -80
10 -4 4 -264 1586 -264 1605 0 9 25 12 90 12 55 0 90 -4 90 -10z m705 -12 c15
-71 215 -1600 210 -1608 -7 -12 -145 -14 -145 -2 0 4 -38 311 -85 682 -47 371
-85 680 -85 687 0 9 -18 13 -65 13 -47 0 -65 4 -65 13 0 7 9 62 20 122 11 60
20 110 20 112 0 2 43 3 95 3 90 0 95 -1 100 -22z m665 11 c0 -12 -52 -303 -55
-307 -1 -1 -22 6 -46 17 -24 11 -61 23 -81 26 -21 4 -38 10 -38 14 0 7 38 206
45 239 5 21 10 22 90 22 54 0 85 -4 85 -11z m-797 -266 c3 -5 8 -40 12 -79 l7
-71 -198 -7 c-108 -4 -220 -11 -248 -16 -28 -4 -52 -7 -53 -6 -6 6 -25 157
-20 162 13 13 493 29 500 17z m545 -14 c94 -14 170 -40 226 -78 77 -53 126
-186 126 -343 l0 -58 -90 0 -90 0 0 73 c0 101 -13 140 -61 180 -54 47 -131 67
-294 76 -74 4 -137 9 -140 12 -7 7 -25 106 -25 137 l0 25 138 -7 c75 -4 170
-11 210 -17z m-1265 -91 c22 -92 29 -179 18 -227 -14 -66 -15 -632 -1 -756 6
-49 15 -106 21 -125 30 -95 108 -143 262 -161 l99 -12 -7 -61 c-11 -105 -6
-100 -99 -92 -106 9 -210 33 -266 61 -98 50 -166 153 -192 290 -18 97 -18 742
0 838 21 110 48 171 99 222 26 25 50 45 54 45 4 0 9 -10 12 -22z m724 -130
c-4 -29 -54 -394 -113 -810 l-107 -758 -103 0 -102 0 -16 93 c-9 50 -19 105
-22 121 l-6 28 73 -3 73 -4 89 680 c48 374 90 686 92 693 3 8 28 12 76 12 l72
0 -6 -52z m607 -1 c44 -25 76 -77 76 -123 0 -17 -49 -345 -110 -729 -60 -383
-110 -701 -110 -706 0 -5 -47 -9 -104 -9 l-104 0 -12 68 c-6 37 -14 88 -17
114 l-6 47 69 3 69 3 27 200 c106 781 162 1155 172 1155 6 0 29 -10 50 -23z
m306 -834 c-1 -112 -20 -238 -46 -290 -46 -96 -148 -158 -280 -170 l-62 -6 9
54 c5 30 12 68 14 85 5 28 11 33 49 43 97 24 127 73 134 223 l5 108 88 0 89 0
0 -47z m-564 -385 c-4 -40 -11 -76 -15 -81 -4 -4 -117 -10 -251 -14 l-243 -6
7 49 c4 27 10 64 13 81 l5 32 147 4 c80 1 190 4 245 5 l99 2 -7 -72z m-2481
-749 c56 -16 92 -44 116 -90 23 -46 19 -59 -19 -59 -19 1 -33 10 -47 33 -46
73 -148 87 -216 29 -44 -36 -60 -82 -60 -165 0 -126 60 -201 157 -199 60 0
105 28 129 79 18 39 22 42 50 37 17 -4 31 -8 33 -9 8 -7 -32 -83 -56 -109 -38
-41 -82 -56 -158 -56 -79 0 -123 18 -164 68 -57 69 -78 195 -49 291 34 115
163 183 284 150z m536 -9 c97 -27 125 -151 52 -224 -15 -15 -40 -30 -55 -33
-34 -7 -35 -10 -4 -34 26 -20 136 -182 136 -200 0 -6 -16 -9 -37 -7 -35 3 -42
9 -94 88 -80 121 -96 133 -174 138 l-65 4 0 -116 0 -117 -32 3 -33 3 -3 253
-2 252 137 0 c76 0 154 -5 174 -10z m281 -89 c86 -136 88 -138 94 -125 2 6 36
59 74 118 l69 106 41 0 42 0 -35 -47 c-18 -27 -64 -91 -100 -144 l-66 -96 -3
-109 -3 -109 -32 -3 -33 -3 0 109 0 109 -95 141 c-52 77 -95 143 -95 146 0 3
18 6 39 6 39 0 40 -1 103 -99z m694 75 c83 -50 84 -189 1 -250 -24 -18 -46
-21 -143 -25 l-114 -3 0 -104 0 -104 -30 0 -30 0 0 256 0 256 143 -4 c116 -3
148 -7 173 -22z m400 -161 c24 -99 43 -190 43 -202 2 -54 19 -10 72 180 l56
202 41 3 41 3 15 -53 c44 -152 86 -313 86 -329 0 -10 4 -20 8 -23 4 -3 30 87
57 200 l48 204 34 0 c18 0 33 -3 33 -7 -1 -5 -31 -118 -69 -253 l-68 -245 -30
-3 c-36 -4 -29 -21 -99 233 -25 94 -49 176 -53 183 -4 7 -31 -72 -60 -180 -70
-254 -64 -240 -103 -236 l-31 3 -63 235 c-35 129 -63 243 -63 253 -1 15 5 18
31 15 l32 -3 42 -180z m883 -62 c56 -137 101 -252 101 -256 0 -5 -16 -7 -36
-5 -36 3 -38 5 -66 81 l-30 78 -105 -3 -105 -3 -27 -75 c-26 -70 -29 -75 -59
-78 -21 -2 -32 1 -32 10 0 7 42 122 93 255 l92 243 36 0 36 0 102 -247z m221
22 l0 -225 125 0 125 0 0 -30 0 -31 -157 3 -158 3 -3 253 -2 252 35 0 35 0 0
-225z m392 3 l3 -223 123 -3 122 -3 0 -30 0 -30 -157 3 -158 3 -3 240 c-1 132
0 245 2 252 3 7 19 13 35 13 l31 0 2 -222z m698 192 l0 -30 -150 0 -150 0 0
-75 0 -74 138 -3 137 -3 0 -30 0 -30 -137 -3 -138 -3 0 -84 0 -85 156 0 155 0
-3 -27 -3 -28 -185 0 -185 0 -3 253 -2 252 185 0 185 0 0 -30z m460 0 l0 -29
-82 -3 -83 -3 -3 -222 -2 -223 -30 0 -30 0 0 225 0 225 -85 0 -85 0 0 30 0 30
200 0 200 0 0 -30z m-4142 -649 c3 -9 -5 -11 -30 -6 -41 8 -61 -10 -56 -51 4
-35 31 -53 57 -37 23 14 35 5 20 -14 -16 -18 -59 -16 -81 4 -18 16 -25 77 -10
99 21 32 90 36 100 5z m380 -9 c2 -13 -2 -29 -8 -37 -9 -10 -7 -21 5 -44 21
-42 -3 -43 -27 -1 -22 38 -38 38 -38 0 0 -20 -5 -30 -15 -30 -12 0 -15 15 -15
71 l0 70 48 -3 c40 -3 47 -6 50 -26z m347 6 l16 -23 18 24 c30 39 44 21 16
-21 -14 -20 -25 -51 -25 -67 0 -17 -4 -31 -10 -31 -5 0 -10 15 -10 33 0 18
-11 49 -25 70 -20 28 -22 37 -11 37 8 0 22 -10 31 -22z m450 -18 c0 -32 -3
-35 -32 -38 -29 -3 -33 -7 -33 -33 0 -16 -4 -29 -10 -29 -6 0 -10 30 -10 71
l0 70 43 -3 c41 -3 42 -4 42 -38z m368 -2 l14 -43 12 43 c14 52 38 55 47 7 9
-48 20 -52 28 -10 6 32 22 53 31 43 8 -8 -30 -131 -42 -135 -7 -3 -18 15 -26
43 l-14 47 -13 -46 c-7 -26 -18 -47 -25 -47 -11 0 -45 97 -45 128 0 27 19 9
33 -30z m575 -24 c13 -36 21 -68 18 -71 -8 -8 -26 7 -26 23 0 23 -51 18 -57
-6 -3 -11 -11 -20 -19 -20 -12 0 -5 30 31 128 11 29 32 8 53 -54z m322 6 l0
-60 35 0 c19 0 35 -4 35 -10 0 -5 -20 -10 -45 -10 l-45 0 0 70 c0 40 4 70 10
70 6 0 10 -27 10 -60z m340 0 l0 -60 35 0 c19 0 35 -4 35 -10 0 -5 -20 -10
-45 -10 l-45 0 0 70 c0 40 4 70 10 70 6 0 10 -27 10 -60z m410 50 c0 -5 -16
-10 -35 -10 -24 0 -35 -5 -35 -15 0 -10 10 -15 30 -15 20 0 30 -5 30 -15 0
-10 -10 -15 -30 -15 -23 0 -30 -4 -30 -20 0 -16 7 -20 35 -20 19 0 35 -4 35
-10 0 -5 -20 -10 -45 -10 l-45 0 0 70 0 70 45 0 c25 0 45 -4 45 -10z m340 0
c0 -5 -7 -10 -15 -10 -12 0 -15 -13 -15 -60 0 -47 -3 -60 -15 -60 -12 0 -15
13 -15 60 0 47 -3 60 -15 60 -8 0 -15 5 -15 10 0 6 20 10 45 10 25 0 45 -4 45
-10z"/>
<path d="M1910 1250 l0 -80 104 0 c96 0 107 2 132 23 37 33 37 81 0 114 -25
21 -36 23 -132 23 l-104 0 0 -80z"/>
<path d="M2877 1323 c-4 -3 -7 -44 -7 -90 l0 -83 84 0 c125 0 165 21 166 87 0
73 -33 93 -153 93 -46 0 -87 -3 -90 -7z"/>
<path d="M4228 1207 c-20 -61 -35 -113 -34 -115 2 -1 39 -2 83 0 l79 3 -40
112 c-23 62 -43 113 -46 112 -3 0 -22 -50 -42 -112z"/>
<path d="M2350 690 c0 -16 5 -21 23 -18 12 2 22 10 22 18 0 8 -10 16 -22 18
-18 3 -23 -2 -23 -18z"/>
<path d="M3150 690 c0 -16 5 -21 23 -18 12 2 22 10 22 18 0 8 -10 16 -22 18
-18 3 -23 -2 -23 -18z"/>
<path d="M4116 671 c-4 -7 -5 -15 -2 -18 9 -9 19 4 14 18 -4 11 -6 11 -12 0z"/>
</g>
</svg>
